<svg width="245" height="28" viewBox="0 0 245 28" fill="none" xmlns="http://www.w3.org/2000/svg">
<path d="M0.86 22V0.999999H6.68L15.08 14.71H12.02L20.18 0.999999H26L26.06 22H19.61L19.55 10.72H20.57L14.99 20.11H11.87L6.05 10.72H7.31V22H0.86ZM37.9367 22.3C36.0767 22.3 34.4267 21.94 32.9867 21.22C31.5667 20.48 30.4467 19.47 29.6267 18.19C28.8067 16.91 28.3967 15.44 28.3967 13.78C28.3967 12.12 28.8067 10.65 29.6267 9.37C30.4467 8.09 31.5667 7.09 32.9867 6.37C34.4267 5.65 36.0767 5.29 37.9367 5.29C39.7967 5.29 41.4467 5.65 42.8867 6.37C44.3267 7.09 45.4467 8.09 46.2467 9.37C47.0667 10.65 47.4767 12.12 47.4767 13.78C47.4767 15.44 47.0667 16.91 46.2467 18.19C45.4467 19.47 44.3267 20.48 42.8867 21.22C41.4467 21.94 39.7967 22.3 37.9367 22.3ZM37.9367 17.02C38.4367 17.02 38.8867 16.9 39.2867 16.66C39.6867 16.42 40.0067 16.06 40.2467 15.58C40.4867 15.08 40.6067 14.48 40.6067 13.78C40.6067 13.06 40.4867 12.47 40.2467 12.01C40.0067 11.53 39.6867 11.17 39.2867 10.93C38.8867 10.69 38.4367 10.57 37.9367 10.57C37.4367 10.57 36.9867 10.69 36.5867 10.93C36.1867 11.17 35.8667 11.53 35.6267 12.01C35.3867 12.47 35.2667 13.06 35.2667 13.78C35.2667 14.48 35.3867 15.08 35.6267 15.58C35.8667 16.06 36.1867 16.42 36.5867 16.66C36.9867 16.9 37.4367 17.02 37.9367 17.02ZM52.7684 22V9.43L54.2384 10.87H47.7584V5.59H64.5284V10.87H58.0484L59.5184 9.43V22H52.7684ZM74.3234 22.3C72.4634 22.3 70.8134 21.94 69.3734 21.22C67.9534 20.48 66.8334 19.47 66.0134 18.19C65.1934 16.91 64.7834 15.44 64.7834 13.78C64.7834 12.12 65.1934 10.65 66.0134 9.37C66.8334 8.09 67.9534 7.09 69.3734 6.37C70.8134 5.65 72.4634 5.29 74.3234 5.29C76.1834 5.29 77.8334 5.65 79.2734 6.37C80.7134 7.09 81.8334 8.09 82.6334 9.37C83.4534 10.65 83.8634 12.12 83.8634 13.78C83.8634 15.44 83.4534 16.91 82.6334 18.19C81.8334 19.47 80.7134 20.48 79.2734 21.22C77.8334 21.94 76.1834 22.3 74.3234 22.3ZM74.3234 17.02C74.8234 17.02 75.2734 16.9 75.6734 16.66C76.0734 16.42 76.3934 16.06 76.6334 15.58C76.8734 15.08 76.9934 14.48 76.9934 13.78C76.9934 13.06 76.8734 12.47 76.6334 12.01C76.3934 11.53 76.0734 11.17 75.6734 10.93C75.2734 10.69 74.8234 10.57 74.3234 10.57C73.8234 10.57 73.3734 10.69 72.9734 10.93C72.5734 11.17 72.2534 11.53 72.0134 12.01C71.7734 12.47 71.6534 13.06 71.6534 13.78C71.6534 14.48 71.7734 15.08 72.0134 15.58C72.2534 16.06 72.5734 16.42 72.9734 16.66C73.3734 16.9 73.8234 17.02 74.3234 17.02ZM86.2311 22V0.999999H106.541V22H99.5811V4.99L101.111 6.49H91.6611L93.1911 4.99V22H86.2311ZM120.935 22.3C119.515 22.3 118.335 22 117.395 21.4C116.475 20.78 115.795 19.85 115.355 18.61C114.915 17.35 114.695 15.75 114.695 13.81C114.695 11.83 114.895 10.22 115.295 8.98C115.715 7.72 116.385 6.79 117.305 6.19C118.225 5.59 119.435 5.29 120.935 5.29C122.375 5.29 123.695 5.64 124.895 6.34C126.095 7.02 127.055 8 127.775 9.28C128.495 10.54 128.855 12.05 128.855 13.81C128.855 15.57 128.495 17.09 127.775 18.37C127.055 19.63 126.095 20.6 124.895 21.28C123.695 21.96 122.375 22.3 120.935 22.3ZM109.985 27.82V5.59H116.435V7.81L116.465 13.81L116.765 19.81V27.82H109.985ZM119.315 17.02C119.815 17.02 120.265 16.9 120.665 16.66C121.065 16.42 121.385 16.06 121.625 15.58C121.865 15.1 121.985 14.51 121.985 13.81C121.985 13.09 121.865 12.49 121.625 12.01C121.385 11.53 121.065 11.17 120.665 10.93C120.265 10.69 119.815 10.57 119.315 10.57C118.815 10.57 118.365 10.69 117.965 10.93C117.565 11.17 117.245 11.53 117.005 12.01C116.765 12.49 116.645 13.09 116.645 13.81C116.645 14.51 116.765 15.1 117.005 15.58C117.245 16.06 117.565 16.42 117.965 16.66C118.365 16.9 118.815 17.02 119.315 17.02ZM139.509 22.3C137.649 22.3 135.999 21.94 134.559 21.22C133.139 20.48 132.019 19.47 131.199 18.19C130.379 16.91 129.969 15.44 129.969 13.78C129.969 12.12 130.379 10.65 131.199 9.37C132.019 8.09 133.139 7.09 134.559 6.37C135.999 5.65 137.649 5.29 139.509 5.29C141.369 5.29 143.019 5.65 144.459 6.37C145.899 7.09 147.019 8.09 147.819 9.37C148.639 10.65 149.049 12.12 149.049 13.78C149.049 15.44 148.639 16.91 147.819 18.19C147.019 19.47 145.899 20.48 144.459 21.22C143.019 21.94 141.369 22.3 139.509 22.3ZM139.509 17.02C140.009 17.02 140.459 16.9 140.859 16.66C141.259 16.42 141.579 16.06 141.819 15.58C142.059 15.08 142.179 14.48 142.179 13.78C142.179 13.06 142.059 12.47 141.819 12.01C141.579 11.53 141.259 11.17 140.859 10.93C140.459 10.69 140.009 10.57 139.509 10.57C139.009 10.57 138.559 10.69 138.159 10.93C137.759 11.17 137.439 11.53 137.199 12.01C136.959 12.47 136.839 13.06 136.839 13.78C136.839 14.48 136.959 15.08 137.199 15.58C137.439 16.06 137.759 16.42 138.159 16.66C138.559 16.9 139.009 17.02 139.509 17.02ZM162.487 22L157.987 14.47L163.447 11.29L170.467 22H162.487ZM151.147 22V5.59H157.927V22H151.147ZM155.947 16.54V11.35H162.067V16.54H155.947ZM164.137 14.53L157.777 13.93L162.997 5.59H170.137L164.137 14.53ZM181.254 22V19.09L180.774 18.31V12.79C180.774 11.99 180.524 11.38 180.024 10.96C179.544 10.54 178.754 10.33 177.654 10.33C176.914 10.33 176.164 10.45 175.404 10.69C174.644 10.91 173.994 11.22 173.454 11.62L171.294 7.15C172.254 6.55 173.404 6.09 174.744 5.77C176.084 5.45 177.394 5.29 178.674 5.29C181.494 5.29 183.674 5.92 185.214 7.18C186.774 8.44 187.554 10.44 187.554 13.18V22H181.254ZM176.604 22.3C175.264 22.3 174.144 22.07 173.244 21.61C172.344 21.15 171.664 20.54 171.204 19.78C170.744 19 170.514 18.14 170.514 17.2C170.514 16.14 170.784 15.24 171.324 14.5C171.864 13.76 172.684 13.2 173.784 12.82C174.904 12.44 176.314 12.25 178.014 12.25H181.434V15.52H179.094C178.374 15.52 177.844 15.64 177.504 15.88C177.184 16.1 177.024 16.44 177.024 16.9C177.024 17.28 177.164 17.6 177.444 17.86C177.744 18.1 178.144 18.22 178.644 18.22C179.104 18.22 179.524 18.1 179.904 17.86C180.304 17.6 180.594 17.2 180.774 16.66L181.644 18.67C181.384 19.89 180.834 20.8 179.994 21.4C179.154 22 178.024 22.3 176.604 22.3ZM194.097 22V9.43L195.567 10.87H189.087V5.59H205.857V10.87H199.377L200.847 9.43V22H194.097ZM214.647 22.48C213.207 22.48 211.747 22.32 210.267 22C208.787 21.68 207.487 21.21 206.367 20.59L208.767 15.37C209.667 15.89 210.607 16.28 211.587 16.54C212.567 16.78 213.497 16.9 214.377 16.9C215.177 16.9 215.837 16.76 216.357 16.48C216.877 16.2 217.137 15.79 217.137 15.25C217.137 14.95 217.047 14.69 216.867 14.47C216.687 14.23 216.367 14.05 215.907 13.93C215.467 13.81 214.817 13.75 213.957 13.75H207.867L208.917 0.999999H222.867V6.34H211.407L214.977 3.31L214.347 11.44L210.777 8.41H215.667C217.747 8.41 219.407 8.71 220.647 9.31C221.907 9.91 222.817 10.72 223.377 11.74C223.957 12.74 224.247 13.86 224.247 15.1C224.247 16.34 223.907 17.53 223.227 18.67C222.567 19.79 221.527 20.71 220.107 21.43C218.707 22.13 216.887 22.48 214.647 22.48ZM235.171 22.48C233.311 22.48 231.661 22.05 230.221 21.19C228.801 20.33 227.681 19.08 226.861 17.44C226.061 15.8 225.661 13.82 225.661 11.5C225.661 9.18 226.061 7.2 226.861 5.56C227.681 3.92 228.801 2.67 230.221 1.81C231.661 0.949999 233.311 0.519999 235.171 0.519999C237.031 0.519999 238.671 0.949999 240.091 1.81C241.531 2.67 242.651 3.92 243.451 5.56C244.271 7.2 244.681 9.18 244.681 11.5C244.681 13.82 244.271 15.8 243.451 17.44C242.651 19.08 241.531 20.33 240.091 21.19C238.671 22.05 237.031 22.48 235.171 22.48ZM235.171 16.81C235.631 16.81 236.041 16.65 236.401 16.33C236.761 16.01 237.041 15.46 237.241 14.68C237.461 13.9 237.571 12.84 237.571 11.5C237.571 10.14 237.461 9.08 237.241 8.32C237.041 7.54 236.761 6.99 236.401 6.67C236.041 6.35 235.631 6.19 235.171 6.19C234.711 6.19 234.301 6.35 233.941 6.67C233.581 6.99 233.291 7.54 233.071 8.32C232.871 9.08 232.771 10.14 232.771 11.5C232.771 12.84 232.871 13.9 233.071 14.68C233.291 15.46 233.581 16.01 233.941 16.33C234.301 16.65 234.711 16.81 235.171 16.81Z" fill="white"/>
</svg>
