<svg width="248" height="50" viewBox="0 0 248 50" fill="none" xmlns="http://www.w3.org/2000/svg">
<path d="M1.86 29V8H7.68L16.08 21.71H13.02L21.18 8H27L27.06 29H20.61L20.55 17.72H21.57L15.99 27.11H12.87L7.05 17.72H8.31V29H1.86ZM38.9367 29.3C37.0767 29.3 35.4267 28.94 33.9867 28.22C32.5667 27.48 31.4467 26.47 30.6267 25.19C29.8067 23.91 29.3967 22.44 29.3967 20.78C29.3967 19.12 29.8067 17.65 30.6267 16.37C31.4467 15.09 32.5667 14.09 33.9867 13.37C35.4267 12.65 37.0767 12.29 38.9367 12.29C40.7967 12.29 42.4467 12.65 43.8867 13.37C45.3267 14.09 46.4467 15.09 47.2467 16.37C48.0667 17.65 48.4767 19.12 48.4767 20.78C48.4767 22.44 48.0667 23.91 47.2467 25.19C46.4467 26.47 45.3267 27.48 43.8867 28.22C42.4467 28.94 40.7967 29.3 38.9367 29.3ZM38.9367 24.02C39.4367 24.02 39.8867 23.9 40.2867 23.66C40.6867 23.42 41.0067 23.06 41.2467 22.58C41.4867 22.08 41.6067 21.48 41.6067 20.78C41.6067 20.06 41.4867 19.47 41.2467 19.01C41.0067 18.53 40.6867 18.17 40.2867 17.93C39.8867 17.69 39.4367 17.57 38.9367 17.57C38.4367 17.57 37.9867 17.69 37.5867 17.93C37.1867 18.17 36.8667 18.53 36.6267 19.01C36.3867 19.47 36.2667 20.06 36.2667 20.78C36.2667 21.48 36.3867 22.08 36.6267 22.58C36.8667 23.06 37.1867 23.42 37.5867 23.66C37.9867 23.9 38.4367 24.02 38.9367 24.02ZM53.7684 29V16.43L55.2384 17.87H48.7584V12.59H65.5284V17.87H59.0484L60.5184 16.43V29H53.7684ZM75.3234 29.3C73.4634 29.3 71.8134 28.94 70.3734 28.22C68.9534 27.48 67.8334 26.47 67.0134 25.19C66.1934 23.91 65.7834 22.44 65.7834 20.78C65.7834 19.12 66.1934 17.65 67.0134 16.37C67.8334 15.09 68.9534 14.09 70.3734 13.37C71.8134 12.65 73.4634 12.29 75.3234 12.29C77.1834 12.29 78.8334 12.65 80.2734 13.37C81.7134 14.09 82.8334 15.09 83.6334 16.37C84.4534 17.65 84.8634 19.12 84.8634 20.78C84.8634 22.44 84.4534 23.91 83.6334 25.19C82.8334 26.47 81.7134 27.48 80.2734 28.22C78.8334 28.94 77.1834 29.3 75.3234 29.3ZM75.3234 24.02C75.8234 24.02 76.2734 23.9 76.6734 23.66C77.0734 23.42 77.3934 23.06 77.6334 22.58C77.8734 22.08 77.9934 21.48 77.9934 20.78C77.9934 20.06 77.8734 19.47 77.6334 19.01C77.3934 18.53 77.0734 18.17 76.6734 17.93C76.2734 17.69 75.8234 17.57 75.3234 17.57C74.8234 17.57 74.3734 17.69 73.9734 17.93C73.5734 18.17 73.2534 18.53 73.0134 19.01C72.7734 19.47 72.6534 20.06 72.6534 20.78C72.6534 21.48 72.7734 22.08 73.0134 22.58C73.2534 23.06 73.5734 23.42 73.9734 23.66C74.3734 23.9 74.8234 24.02 75.3234 24.02ZM215.647 29.48C214.207 29.48 212.747 29.32 211.267 29C209.787 28.68 208.487 28.21 207.367 27.59L209.767 22.37C210.667 22.89 211.607 23.28 212.587 23.54C213.567 23.78 214.497 23.9 215.377 23.9C216.177 23.9 216.837 23.76 217.357 23.48C217.877 23.2 218.137 22.79 218.137 22.25C218.137 21.95 218.047 21.69 217.867 21.47C217.687 21.23 217.367 21.05 216.907 20.93C216.467 20.81 215.817 20.75 214.957 20.75H208.867L209.917 8H223.867V13.34H212.407L215.977 10.31L215.347 18.44L211.777 15.41H216.667C218.747 15.41 220.407 15.71 221.647 16.31C222.907 16.91 223.817 17.72 224.377 18.74C224.957 19.74 225.247 20.86 225.247 22.1C225.247 23.34 224.907 24.53 224.227 25.67C223.567 26.79 222.527 27.71 221.107 28.43C219.707 29.13 217.887 29.48 215.647 29.48ZM236.171 29.48C234.311 29.48 232.661 29.05 231.221 28.19C229.801 27.33 228.681 26.08 227.861 24.44C227.061 22.8 226.661 20.82 226.661 18.5C226.661 16.18 227.061 14.2 227.861 12.56C228.681 10.92 229.801 9.67 231.221 8.81C232.661 7.95 234.311 7.52 236.171 7.52C238.031 7.52 239.671 7.95 241.091 8.81C242.531 9.67 243.651 10.92 244.451 12.56C245.271 14.2 245.681 16.18 245.681 18.5C245.681 20.82 245.271 22.8 244.451 24.44C243.651 26.08 242.531 27.33 241.091 28.19C239.671 29.05 238.031 29.48 236.171 29.48ZM236.171 23.81C236.631 23.81 237.041 23.65 237.401 23.33C237.761 23.01 238.041 22.46 238.241 21.68C238.461 20.9 238.571 19.84 238.571 18.5C238.571 17.14 238.461 16.08 238.241 15.32C238.041 14.54 237.761 13.99 237.401 13.67C237.041 13.35 236.631 13.19 236.171 13.19C235.711 13.19 235.301 13.35 234.941 13.67C234.581 13.99 234.291 14.54 234.071 15.32C233.871 16.08 233.771 17.14 233.771 18.5C233.771 19.84 233.871 20.9 234.071 21.68C234.291 22.46 234.581 23.01 234.941 23.33C235.301 23.65 235.711 23.81 236.171 23.81Z" fill="#333DEC"/>
<path d="M87.2311 29V8H107.541V29H100.581V11.99L102.111 13.49H92.6611L94.1911 11.99V29H87.2311ZM121.935 29.3C120.515 29.3 119.335 29 118.395 28.4C117.475 27.78 116.795 26.85 116.355 25.61C115.915 24.35 115.695 22.75 115.695 20.81C115.695 18.83 115.895 17.22 116.295 15.98C116.715 14.72 117.385 13.79 118.305 13.19C119.225 12.59 120.435 12.29 121.935 12.29C123.375 12.29 124.695 12.64 125.895 13.34C127.095 14.02 128.055 15 128.775 16.28C129.495 17.54 129.855 19.05 129.855 20.81C129.855 22.57 129.495 24.09 128.775 25.37C128.055 26.63 127.095 27.6 125.895 28.28C124.695 28.96 123.375 29.3 121.935 29.3ZM110.985 34.82V12.59H117.435V14.81L117.465 20.81L117.765 26.81V34.82H110.985ZM120.315 24.02C120.815 24.02 121.265 23.9 121.665 23.66C122.065 23.42 122.385 23.06 122.625 22.58C122.865 22.1 122.985 21.51 122.985 20.81C122.985 20.09 122.865 19.49 122.625 19.01C122.385 18.53 122.065 18.17 121.665 17.93C121.265 17.69 120.815 17.57 120.315 17.57C119.815 17.57 119.365 17.69 118.965 17.93C118.565 18.17 118.245 18.53 118.005 19.01C117.765 19.49 117.645 20.09 117.645 20.81C117.645 21.51 117.765 22.1 118.005 22.58C118.245 23.06 118.565 23.42 118.965 23.66C119.365 23.9 119.815 24.02 120.315 24.02ZM140.509 29.3C138.649 29.3 136.999 28.94 135.559 28.22C134.139 27.48 133.019 26.47 132.199 25.19C131.379 23.91 130.969 22.44 130.969 20.78C130.969 19.12 131.379 17.65 132.199 16.37C133.019 15.09 134.139 14.09 135.559 13.37C136.999 12.65 138.649 12.29 140.509 12.29C142.369 12.29 144.019 12.65 145.459 13.37C146.899 14.09 148.019 15.09 148.819 16.37C149.639 17.65 150.049 19.12 150.049 20.78C150.049 22.44 149.639 23.91 148.819 25.19C148.019 26.47 146.899 27.48 145.459 28.22C144.019 28.94 142.369 29.3 140.509 29.3ZM140.509 24.02C141.009 24.02 141.459 23.9 141.859 23.66C142.259 23.42 142.579 23.06 142.819 22.58C143.059 22.08 143.179 21.48 143.179 20.78C143.179 20.06 143.059 19.47 142.819 19.01C142.579 18.53 142.259 18.17 141.859 17.93C141.459 17.69 141.009 17.57 140.509 17.57C140.009 17.57 139.559 17.69 139.159 17.93C138.759 18.17 138.439 18.53 138.199 19.01C137.959 19.47 137.839 20.06 137.839 20.78C137.839 21.48 137.959 22.08 138.199 22.58C138.439 23.06 138.759 23.42 139.159 23.66C139.559 23.9 140.009 24.02 140.509 24.02ZM163.487 29L158.987 21.47L164.447 18.29L171.467 29H163.487ZM152.147 29V12.59H158.927V29H152.147ZM156.947 23.54V18.35H163.067V23.54H156.947ZM165.137 21.53L158.777 20.93L163.997 12.59H171.137L165.137 21.53ZM182.254 29V26.09L181.774 25.31V19.79C181.774 18.99 181.524 18.38 181.024 17.96C180.544 17.54 179.754 17.33 178.654 17.33C177.914 17.33 177.164 17.45 176.404 17.69C175.644 17.91 174.994 18.22 174.454 18.62L172.294 14.15C173.254 13.55 174.404 13.09 175.744 12.77C177.084 12.45 178.394 12.29 179.674 12.29C182.494 12.29 184.674 12.92 186.214 14.18C187.774 15.44 188.554 17.44 188.554 20.18V29H182.254ZM177.604 29.3C176.264 29.3 175.144 29.07 174.244 28.61C173.344 28.15 172.664 27.54 172.204 26.78C171.744 26 171.514 25.14 171.514 24.2C171.514 23.14 171.784 22.24 172.324 21.5C172.864 20.76 173.684 20.2 174.784 19.82C175.904 19.44 177.314 19.25 179.014 19.25H182.434V22.52H180.094C179.374 22.52 178.844 22.64 178.504 22.88C178.184 23.1 178.024 23.44 178.024 23.9C178.024 24.28 178.164 24.6 178.444 24.86C178.744 25.1 179.144 25.22 179.644 25.22C180.104 25.22 180.524 25.1 180.904 24.86C181.304 24.6 181.594 24.2 181.774 23.66L182.644 25.67C182.384 26.89 181.834 27.8 180.994 28.4C180.154 29 179.024 29.3 177.604 29.3ZM195.097 29V16.43L196.567 17.87H190.087V12.59H206.857V17.87H200.377L201.847 16.43V29H195.097Z" fill="#1A1D8A"/>
<path d="M1.417 47V37.9H9.256V47H7.982V38.693L8.294 39.031H2.379L2.704 38.693V47H1.417ZM15.5388 47.078C14.9668 47.078 14.4424 46.948 13.9658 46.688C13.4978 46.4193 13.1208 46.025 12.8348 45.505C12.5574 44.985 12.4188 44.335 12.4188 43.555C12.4188 42.775 12.5531 42.125 12.8218 41.605C13.0991 41.085 13.4718 40.695 13.9398 40.435C14.4164 40.175 14.9494 40.045 15.5388 40.045C16.2148 40.045 16.8128 40.1923 17.3328 40.487C17.8528 40.7817 18.2644 41.1933 18.5678 41.722C18.8711 42.242 19.0228 42.853 19.0228 43.555C19.0228 44.257 18.8711 44.8723 18.5678 45.401C18.2644 45.9297 17.8528 46.3413 17.3328 46.636C16.8128 46.9307 16.2148 47.078 15.5388 47.078ZM11.8858 49.522V40.11H13.0818V41.969L13.0038 43.568L13.1338 45.167V49.522H11.8858ZM15.4348 45.986C15.8768 45.986 16.2711 45.8863 16.6178 45.687C16.9731 45.4877 17.2504 45.206 17.4498 44.842C17.6578 44.4693 17.7618 44.0403 17.7618 43.555C17.7618 43.061 17.6578 42.6363 17.4498 42.281C17.2504 41.917 16.9731 41.6353 16.6178 41.436C16.2711 41.2367 15.8768 41.137 15.4348 41.137C15.0014 41.137 14.6071 41.2367 14.2518 41.436C13.9051 41.6353 13.6278 41.917 13.4198 42.281C13.2204 42.6363 13.1208 43.061 13.1208 43.555C13.1208 44.0403 13.2204 44.4693 13.4198 44.842C13.6278 45.206 13.9051 45.4877 14.2518 45.687C14.6071 45.8863 15.0014 45.986 15.4348 45.986ZM23.787 47.078C23.0936 47.078 22.4783 46.9263 21.941 46.623C21.4036 46.3197 20.979 45.9037 20.667 45.375C20.355 44.8377 20.199 44.231 20.199 43.555C20.199 42.8703 20.355 42.2637 20.667 41.735C20.979 41.2063 21.4036 40.7947 21.941 40.5C22.4783 40.1967 23.0936 40.045 23.787 40.045C24.4716 40.045 25.0826 40.1967 25.62 40.5C26.166 40.7947 26.5906 41.2063 26.894 41.735C27.206 42.255 27.362 42.8617 27.362 43.555C27.362 44.2397 27.206 44.8463 26.894 45.375C26.5906 45.9037 26.166 46.3197 25.62 46.623C25.0826 46.9263 24.4716 47.078 23.787 47.078ZM23.787 45.986C24.229 45.986 24.6233 45.8863 24.97 45.687C25.3253 45.4877 25.6026 45.206 25.802 44.842C26.0013 44.4693 26.101 44.0403 26.101 43.555C26.101 43.061 26.0013 42.6363 25.802 42.281C25.6026 41.917 25.3253 41.6353 24.97 41.436C24.6233 41.2367 24.229 41.137 23.787 41.137C23.345 41.137 22.9506 41.2367 22.604 41.436C22.2573 41.6353 21.98 41.917 21.772 42.281C21.564 42.6363 21.46 43.061 21.46 43.555C21.46 44.0403 21.564 44.4693 21.772 44.842C21.98 45.206 22.2573 45.4877 22.604 45.687C22.9506 45.8863 23.345 45.986 23.787 45.986ZM34.1561 47L31.4911 43.646L32.5181 43.022L35.6251 47H34.1561ZM29.1641 47V40.11H30.4121V47H29.1641ZM30.0351 44.088V43.022H32.3101V44.088H30.0351ZM32.6221 43.698L31.4651 43.542L34.1041 40.11H35.4431L32.6221 43.698ZM41.0317 47V45.544L40.9667 45.271V42.788C40.9667 42.2593 40.8107 41.852 40.4987 41.566C40.1953 41.2713 39.736 41.124 39.1207 41.124C38.7133 41.124 38.3147 41.1933 37.9247 41.332C37.5347 41.462 37.2053 41.6397 36.9367 41.865L36.4167 40.929C36.772 40.643 37.1967 40.4263 37.6907 40.279C38.1933 40.123 38.7177 40.045 39.2637 40.045C40.2083 40.045 40.9363 40.2747 41.4477 40.734C41.959 41.1933 42.2147 41.8953 42.2147 42.84V47H41.0317ZM38.7697 47.078C38.2583 47.078 37.8077 46.9913 37.4177 46.818C37.0363 46.6447 36.7417 46.4063 36.5337 46.103C36.3257 45.791 36.2217 45.44 36.2217 45.05C36.2217 44.6773 36.3083 44.3393 36.4817 44.036C36.6637 43.7327 36.954 43.49 37.3527 43.308C37.76 43.126 38.306 43.035 38.9907 43.035H41.1747V43.932H39.0427C38.4187 43.932 37.9983 44.036 37.7817 44.244C37.565 44.452 37.4567 44.7033 37.4567 44.998C37.4567 45.336 37.591 45.609 37.8597 45.817C38.1283 46.0163 38.501 46.116 38.9777 46.116C39.4457 46.116 39.853 46.012 40.1997 45.804C40.555 45.596 40.8107 45.2927 40.9667 44.894L41.2137 45.752C41.049 46.1593 40.7587 46.4843 40.3427 46.727C39.9267 46.961 39.4023 47.078 38.7697 47.078ZM45.8269 47V40.877L46.1389 41.202H43.3049V40.11H49.5969V41.202H46.7759L47.0749 40.877V47H45.8269ZM57.3673 47.078C56.6653 47.078 56.0369 46.9263 55.4823 46.623C54.9363 46.3197 54.5073 45.9037 54.1953 45.375C53.8833 44.8463 53.7273 44.2397 53.7273 43.555C53.7273 42.8703 53.8833 42.2637 54.1953 41.735C54.5073 41.2063 54.9363 40.7947 55.4823 40.5C56.0369 40.1967 56.6653 40.045 57.3673 40.045C57.9913 40.045 58.5459 40.1707 59.0313 40.422C59.5253 40.6647 59.9066 41.0287 60.1753 41.514L59.2263 42.125C59.0009 41.787 58.7236 41.54 58.3943 41.384C58.0736 41.2193 57.7269 41.137 57.3543 41.137C56.9036 41.137 56.5006 41.2367 56.1453 41.436C55.7899 41.6353 55.5083 41.917 55.3003 42.281C55.0923 42.6363 54.9883 43.061 54.9883 43.555C54.9883 44.049 55.0923 44.478 55.3003 44.842C55.5083 45.206 55.7899 45.4877 56.1453 45.687C56.5006 45.8863 56.9036 45.986 57.3543 45.986C57.7269 45.986 58.0736 45.908 58.3943 45.752C58.7236 45.5873 59.0009 45.336 59.2263 44.998L60.1753 45.596C59.9066 46.0727 59.5253 46.441 59.0313 46.701C58.5459 46.9523 57.9913 47.078 57.3673 47.078ZM61.791 47V40.11H63.039V43.035H66.965V40.11H68.213V47H66.965V44.114H63.039V47H61.791ZM73.7077 47.078C72.971 47.078 72.321 46.9263 71.7577 46.623C71.203 46.3197 70.7697 45.9037 70.4577 45.375C70.1543 44.8463 70.0027 44.2397 70.0027 43.555C70.0027 42.8703 70.15 42.2637 70.4447 41.735C70.748 41.2063 71.1597 40.7947 71.6797 40.5C72.2083 40.1967 72.802 40.045 73.4607 40.045C74.128 40.045 74.7173 40.1923 75.2287 40.487C75.74 40.7817 76.1387 41.1977 76.4247 41.735C76.7193 42.2637 76.8667 42.8833 76.8667 43.594C76.8667 43.646 76.8623 43.7067 76.8537 43.776C76.8537 43.8453 76.8493 43.9103 76.8407 43.971H70.9777V43.074H76.1907L75.6837 43.386C75.6923 42.944 75.6013 42.5497 75.4107 42.203C75.22 41.8563 74.9557 41.5877 74.6177 41.397C74.2883 41.1977 73.9027 41.098 73.4607 41.098C73.0273 41.098 72.6417 41.1977 72.3037 41.397C71.9657 41.5877 71.7013 41.8607 71.5107 42.216C71.32 42.5627 71.2247 42.9613 71.2247 43.412V43.62C71.2247 44.0793 71.3287 44.491 71.5367 44.855C71.7533 45.2103 72.0523 45.4877 72.4337 45.687C72.815 45.8863 73.2527 45.986 73.7467 45.986C74.154 45.986 74.5223 45.9167 74.8517 45.778C75.1897 45.6393 75.4843 45.4313 75.7357 45.154L76.4247 45.96C76.1127 46.324 75.7227 46.6013 75.2547 46.792C74.7953 46.9827 74.2797 47.078 73.7077 47.078ZM78.8028 47V40.11H83.8728V41.202H79.7518L80.0508 40.916V47H78.8028ZM87.7967 47.078C87.1034 47.078 86.4881 46.9263 85.9507 46.623C85.4134 46.3197 84.9887 45.9037 84.6767 45.375C84.3647 44.8377 84.2087 44.231 84.2087 43.555C84.2087 42.8703 84.3647 42.2637 84.6767 41.735C84.9887 41.2063 85.4134 40.7947 85.9507 40.5C86.4881 40.1967 87.1034 40.045 87.7967 40.045C88.4814 40.045 89.0924 40.1967 89.6297 40.5C90.1757 40.7947 90.6004 41.2063 90.9037 41.735C91.2157 42.255 91.3717 42.8617 91.3717 43.555C91.3717 44.2397 91.2157 44.8463 90.9037 45.375C90.6004 45.9037 90.1757 46.3197 89.6297 46.623C89.0924 46.9263 88.4814 47.078 87.7967 47.078ZM87.7967 45.986C88.2387 45.986 88.6331 45.8863 88.9797 45.687C89.3351 45.4877 89.6124 45.206 89.8117 44.842C90.0111 44.4693 90.1107 44.0403 90.1107 43.555C90.1107 43.061 90.0111 42.6363 89.8117 42.281C89.6124 41.917 89.3351 41.6353 88.9797 41.436C88.6331 41.2367 88.2387 41.137 87.7967 41.137C87.3547 41.137 86.9604 41.2367 86.6137 41.436C86.2671 41.6353 85.9897 41.917 85.7817 42.281C85.5737 42.6363 85.4697 43.061 85.4697 43.555C85.4697 44.0403 85.5737 44.4693 85.7817 44.842C85.9897 45.206 86.2671 45.4877 86.6137 45.687C86.9604 45.8863 87.3547 45.986 87.7967 45.986ZM91.8533 47L94.8173 43.152L94.8043 43.789L91.9833 40.11H93.3743L95.5323 42.944H94.9993L97.1573 40.11H98.5223L95.6623 43.815L95.6753 43.152L98.6653 47H97.2483L94.9733 43.984L95.4803 44.062L93.2443 47H91.8533ZM102.701 47.078C102.008 47.078 101.392 46.9263 100.855 46.623C100.318 46.3197 99.893 45.9037 99.581 45.375C99.269 44.8377 99.113 44.231 99.113 43.555C99.113 42.8703 99.269 42.2637 99.581 41.735C99.893 41.2063 100.318 40.7947 100.855 40.5C101.392 40.1967 102.008 40.045 102.701 40.045C103.386 40.045 103.997 40.1967 104.534 40.5C105.08 40.7947 105.505 41.2063 105.808 41.735C106.12 42.255 106.276 42.8617 106.276 43.555C106.276 44.2397 106.12 44.8463 105.808 45.375C105.505 45.9037 105.08 46.3197 104.534 46.623C103.997 46.9263 103.386 47.078 102.701 47.078ZM102.701 45.986C103.143 45.986 103.537 45.8863 103.884 45.687C104.239 45.4877 104.517 45.206 104.716 44.842C104.915 44.4693 105.015 44.0403 105.015 43.555C105.015 43.061 104.915 42.6363 104.716 42.281C104.517 41.917 104.239 41.6353 103.884 41.436C103.537 41.2367 103.143 41.137 102.701 41.137C102.259 41.137 101.865 41.2367 101.518 41.436C101.171 41.6353 100.894 41.917 100.686 42.281C100.478 42.6363 100.374 43.061 100.374 43.555C100.374 44.0403 100.478 44.4693 100.686 44.842C100.894 45.206 101.171 45.4877 101.518 45.687C101.865 45.8863 102.259 45.986 102.701 45.986ZM112.733 46.415V41.202H109.743L109.678 42.528C109.661 42.9613 109.631 43.3817 109.587 43.789C109.553 44.1877 109.492 44.556 109.405 44.894C109.327 45.232 109.21 45.5093 109.054 45.726C108.898 45.9427 108.69 46.077 108.43 46.129L107.195 45.908C107.464 45.9167 107.681 45.83 107.845 45.648C108.01 45.4573 108.136 45.1973 108.222 44.868C108.318 44.5387 108.387 44.166 108.43 43.75C108.474 43.3253 108.508 42.8877 108.534 42.437L108.638 40.11H113.981V46.415H112.733ZM106.922 48.599V45.908H115.034V48.599H113.864V47H108.105V48.599H106.922ZM119.611 47.078C118.918 47.078 118.303 46.9263 117.765 46.623C117.228 46.3197 116.803 45.9037 116.491 45.375C116.179 44.8377 116.023 44.231 116.023 43.555C116.023 42.8703 116.179 42.2637 116.491 41.735C116.803 41.2063 117.228 40.7947 117.765 40.5C118.303 40.1967 118.918 40.045 119.611 40.045C120.296 40.045 120.907 40.1967 121.444 40.5C121.99 40.7947 122.415 41.2063 122.718 41.735C123.03 42.255 123.186 42.8617 123.186 43.555C123.186 44.2397 123.03 44.8463 122.718 45.375C122.415 45.9037 121.99 46.3197 121.444 46.623C120.907 46.9263 120.296 47.078 119.611 47.078ZM119.611 45.986C120.053 45.986 120.448 45.8863 120.794 45.687C121.15 45.4877 121.427 45.206 121.626 44.842C121.826 44.4693 121.925 44.0403 121.925 43.555C121.925 43.061 121.826 42.6363 121.626 42.281C121.427 41.917 121.15 41.6353 120.794 41.436C120.448 41.2367 120.053 41.137 119.611 41.137C119.169 41.137 118.775 41.2367 118.428 41.436C118.082 41.6353 117.804 41.917 117.596 42.281C117.388 42.6363 117.284 43.061 117.284 43.555C117.284 44.0403 117.388 44.4693 117.596 44.842C117.804 45.206 118.082 45.4877 118.428 45.687C118.775 45.8863 119.169 45.986 119.611 45.986ZM124.988 47V40.11H128.186C128.992 40.11 129.625 40.266 130.084 40.578C130.552 40.8813 130.786 41.3147 130.786 41.878C130.786 42.4413 130.565 42.879 130.123 43.191C129.69 43.4943 129.114 43.646 128.394 43.646L128.589 43.308C129.413 43.308 130.024 43.4597 130.422 43.763C130.821 44.0663 131.02 44.5127 131.02 45.102C131.02 45.7 130.795 46.168 130.344 46.506C129.902 46.8353 129.222 47 128.303 47H124.988ZM126.21 46.038H128.212C128.732 46.038 129.122 45.96 129.382 45.804C129.642 45.6393 129.772 45.3793 129.772 45.024C129.772 44.66 129.651 44.3957 129.408 44.231C129.174 44.0577 128.802 43.971 128.29 43.971H126.21V46.038ZM126.21 43.074H128.082C128.559 43.074 128.919 42.9873 129.161 42.814C129.413 42.632 129.538 42.3807 129.538 42.06C129.538 41.7307 129.413 41.4837 129.161 41.319C128.919 41.1543 128.559 41.072 128.082 41.072H126.21V43.074ZM136.465 47V40.11H137.713V45.128L141.938 40.11H143.069V47H141.821V41.982L137.609 47H136.465ZM153.974 47L151.309 43.646L152.336 43.022L155.443 47H153.974ZM148.982 47V40.11H150.23V47H148.982ZM149.853 44.088V43.022H152.128V44.088H149.853ZM152.44 43.698L151.283 43.542L153.922 40.11H155.261L152.44 43.698ZM156.752 47V40.11H159.95C160.756 40.11 161.389 40.266 161.848 40.578C162.316 40.8813 162.55 41.3147 162.55 41.878C162.55 42.4413 162.329 42.879 161.887 43.191C161.454 43.4943 160.877 43.646 160.158 43.646L160.353 43.308C161.176 43.308 161.787 43.4597 162.186 43.763C162.585 44.0663 162.784 44.5127 162.784 45.102C162.784 45.7 162.559 46.168 162.108 46.506C161.666 46.8353 160.986 47 160.067 47H156.752ZM157.974 46.038H159.976C160.496 46.038 160.886 45.96 161.146 45.804C161.406 45.6393 161.536 45.3793 161.536 45.024C161.536 44.66 161.415 44.3957 161.172 44.231C160.938 44.0577 160.565 43.971 160.054 43.971H157.974V46.038ZM157.974 43.074H159.846C160.323 43.074 160.682 42.9873 160.925 42.814C161.176 42.632 161.302 42.3807 161.302 42.06C161.302 41.7307 161.176 41.4837 160.925 41.319C160.682 41.1543 160.323 41.072 159.846 41.072H157.974V43.074ZM168.962 47V45.544L168.897 45.271V42.788C168.897 42.2593 168.741 41.852 168.429 41.566C168.126 41.2713 167.667 41.124 167.051 41.124C166.644 41.124 166.245 41.1933 165.855 41.332C165.465 41.462 165.136 41.6397 164.867 41.865L164.347 40.929C164.703 40.643 165.127 40.4263 165.621 40.279C166.124 40.123 166.648 40.045 167.194 40.045C168.139 40.045 168.867 40.2747 169.378 40.734C169.89 41.1933 170.145 41.8953 170.145 42.84V47H168.962ZM166.7 47.078C166.189 47.078 165.738 46.9913 165.348 46.818C164.967 46.6447 164.672 46.4063 164.464 46.103C164.256 45.791 164.152 45.44 164.152 45.05C164.152 44.6773 164.239 44.3393 164.412 44.036C164.594 43.7327 164.885 43.49 165.283 43.308C165.691 43.126 166.237 43.035 166.921 43.035H169.105V43.932H166.973C166.349 43.932 165.929 44.036 165.712 44.244C165.496 44.452 165.387 44.7033 165.387 44.998C165.387 45.336 165.522 45.609 165.79 45.817C166.059 46.0163 166.432 46.116 166.908 46.116C167.376 46.116 167.784 46.012 168.13 45.804C168.486 45.596 168.741 45.2927 168.897 44.894L169.144 45.752C168.98 46.1593 168.689 46.4843 168.273 46.727C167.857 46.961 167.333 47.078 166.7 47.078ZM177.099 46.415V41.202H174.109L174.044 42.528C174.026 42.9613 173.996 43.3817 173.953 43.789C173.918 44.1877 173.857 44.556 173.771 44.894C173.693 45.232 173.576 45.5093 173.42 45.726C173.264 45.9427 173.056 46.077 172.796 46.129L171.561 45.908C171.829 45.9167 172.046 45.83 172.211 45.648C172.375 45.4573 172.501 45.1973 172.588 44.868C172.683 44.5387 172.752 44.166 172.796 43.75C172.839 43.3253 172.874 42.8877 172.9 42.437L173.004 40.11H178.347V46.415H177.099ZM171.288 48.599V45.908H179.4V48.599H178.23V47H172.471V48.599H171.288ZM184.678 47.078C184.106 47.078 183.582 46.948 183.105 46.688C182.637 46.4193 182.26 46.025 181.974 45.505C181.697 44.985 181.558 44.335 181.558 43.555C181.558 42.775 181.693 42.125 181.961 41.605C182.239 41.085 182.611 40.695 183.079 40.435C183.556 40.175 184.089 40.045 184.678 40.045C185.354 40.045 185.952 40.1923 186.472 40.487C186.992 40.7817 187.404 41.1933 187.707 41.722C188.011 42.242 188.162 42.853 188.162 43.555C188.162 44.257 188.011 44.8723 187.707 45.401C187.404 45.9297 186.992 46.3413 186.472 46.636C185.952 46.9307 185.354 47.078 184.678 47.078ZM181.025 49.522V40.11H182.221V41.969L182.143 43.568L182.273 45.167V49.522H181.025ZM184.574 45.986C185.016 45.986 185.411 45.8863 185.757 45.687C186.113 45.4877 186.39 45.206 186.589 44.842C186.797 44.4693 186.901 44.0403 186.901 43.555C186.901 43.061 186.797 42.6363 186.589 42.281C186.39 41.917 186.113 41.6353 185.757 41.436C185.411 41.2367 185.016 41.137 184.574 41.137C184.141 41.137 183.747 41.2367 183.391 41.436C183.045 41.6353 182.767 41.917 182.559 42.281C182.36 42.6363 182.26 43.061 182.26 43.555C182.26 44.0403 182.36 44.4693 182.559 44.842C182.767 45.206 183.045 45.4877 183.391 45.687C183.747 45.8863 184.141 45.986 184.574 45.986ZM192.927 47.078C192.233 47.078 191.618 46.9263 191.081 46.623C190.543 46.3197 190.119 45.9037 189.807 45.375C189.495 44.8377 189.339 44.231 189.339 43.555C189.339 42.8703 189.495 42.2637 189.807 41.735C190.119 41.2063 190.543 40.7947 191.081 40.5C191.618 40.1967 192.233 40.045 192.927 40.045C193.611 40.045 194.222 40.1967 194.76 40.5C195.306 40.7947 195.73 41.2063 196.034 41.735C196.346 42.255 196.502 42.8617 196.502 43.555C196.502 44.2397 196.346 44.8463 196.034 45.375C195.73 45.9037 195.306 46.3197 194.76 46.623C194.222 46.9263 193.611 47.078 192.927 47.078ZM192.927 45.986C193.369 45.986 193.763 45.8863 194.11 45.687C194.465 45.4877 194.742 45.206 194.942 44.842C195.141 44.4693 195.241 44.0403 195.241 43.555C195.241 43.061 195.141 42.6363 194.942 42.281C194.742 41.917 194.465 41.6353 194.11 41.436C193.763 41.2367 193.369 41.137 192.927 41.137C192.485 41.137 192.09 41.2367 191.744 41.436C191.397 41.6353 191.12 41.917 190.912 42.281C190.704 42.6363 190.6 43.061 190.6 43.555C190.6 44.0403 190.704 44.4693 190.912 44.842C191.12 45.206 191.397 45.4877 191.744 45.687C192.09 45.8863 192.485 45.986 192.927 45.986ZM198.304 47V40.11H199.552V45.908H203.322V40.11H204.57V47H198.304ZM204.479 48.599V46.935L204.791 47H203.322V45.908H205.662V48.599H204.479ZM207.279 47V40.11H208.527V45.128L212.752 40.11H213.883V47H212.635V41.982L208.423 47H207.279ZM221.298 47L218.633 43.646L219.66 43.022L222.767 47H221.298ZM216.306 47V40.11H217.554V47H216.306ZM217.177 44.088V43.022H219.452V44.088H217.177ZM219.764 43.698L218.607 43.542L221.246 40.11H222.585L219.764 43.698ZM222.931 46.987L223.009 45.934C223.07 45.9427 223.126 45.9513 223.178 45.96C223.23 45.9687 223.278 45.973 223.321 45.973C223.599 45.973 223.815 45.8777 223.971 45.687C224.136 45.4963 224.257 45.245 224.335 44.933C224.413 44.6123 224.47 44.2527 224.504 43.854C224.539 43.4553 224.565 43.0567 224.582 42.658L224.699 40.11H229.99V47H228.742V40.838L229.041 41.202H225.505L225.791 40.825L225.7 42.736C225.674 43.3427 225.627 43.9103 225.557 44.439C225.488 44.9677 225.38 45.4313 225.232 45.83C225.094 46.2287 224.899 46.5407 224.647 46.766C224.405 46.9913 224.088 47.104 223.698 47.104C223.586 47.104 223.464 47.091 223.334 47.065C223.213 47.0477 223.079 47.0217 222.931 46.987ZM235.354 47.078C234.661 47.078 234.046 46.9263 233.508 46.623C232.971 46.3197 232.546 45.9037 232.234 45.375C231.922 44.8377 231.766 44.231 231.766 43.555C231.766 42.8703 231.922 42.2637 232.234 41.735C232.546 41.2063 232.971 40.7947 233.508 40.5C234.046 40.1967 234.661 40.045 235.354 40.045C236.039 40.045 236.65 40.1967 237.187 40.5C237.733 40.7947 238.158 41.2063 238.461 41.735C238.773 42.255 238.929 42.8617 238.929 43.555C238.929 44.2397 238.773 44.8463 238.461 45.375C238.158 45.9037 237.733 46.3197 237.187 46.623C236.65 46.9263 236.039 47.078 235.354 47.078ZM235.354 45.986C235.796 45.986 236.191 45.8863 236.537 45.687C236.893 45.4877 237.17 45.206 237.369 44.842C237.569 44.4693 237.668 44.0403 237.668 43.555C237.668 43.061 237.569 42.6363 237.369 42.281C237.17 41.917 236.893 41.6353 236.537 41.436C236.191 41.2367 235.796 41.137 235.354 41.137C234.912 41.137 234.518 41.2367 234.171 41.436C233.825 41.6353 233.547 41.917 233.339 42.281C233.131 42.6363 233.027 43.061 233.027 43.555C233.027 44.0403 233.131 44.4693 233.339 44.842C233.547 45.206 233.825 45.4877 234.171 45.687C234.518 45.8863 234.912 45.986 235.354 45.986ZM240.731 47V40.11H243.929C244.735 40.11 245.368 40.266 245.827 40.578C246.295 40.8813 246.529 41.3147 246.529 41.878C246.529 42.4413 246.308 42.879 245.866 43.191C245.433 43.4943 244.857 43.646 244.137 43.646L244.332 43.308C245.156 43.308 245.767 43.4597 246.165 43.763C246.564 44.0663 246.763 44.5127 246.763 45.102C246.763 45.7 246.538 46.168 246.087 46.506C245.645 46.8353 244.965 47 244.046 47H240.731ZM241.953 46.038H243.955C244.475 46.038 244.865 45.96 245.125 45.804C245.385 45.6393 245.515 45.3793 245.515 45.024C245.515 44.66 245.394 44.3957 245.151 44.231C244.917 44.0577 244.545 43.971 244.033 43.971H241.953V46.038ZM241.953 43.074H243.825C244.302 43.074 244.662 42.9873 244.904 42.814C245.156 42.632 245.281 42.3807 245.281 42.06C245.281 41.7307 245.156 41.4837 244.904 41.319C244.662 41.1543 244.302 41.072 243.825 41.072H241.953V43.074Z" fill="#1A1D8A"/>
</svg>
